<?xml version="1.0" encoding="utf-8"?>
<!-- Generator: Adobe Illustrator 19.0.0, SVG Export Plug-In . SVG Version: 6.00 Build 0)  -->
<svg version="1.1" id="圖層_1" xmlns="http://www.w3.org/2000/svg" xmlns:xlink="http://www.w3.org/1999/xlink" x="0px" y="0px"
	 viewBox="0 0 100 30" style="enable-background:new 0 0 100 30;" xml:space="preserve">
<style type="text/css">
	.st0{fill:#F05032;}
	.st1{fill:#FFFFFF;}
	.st2{font-family:'Calibri';}
	.st3{font-size:11.3386px;}
	.st4{letter-spacing:1;}
</style>
<rect id="XMLID_16_" x="28" y="5.3" class="st0" width="40.7" height="20"/>
<text id="XMLID_11_" transform="matrix(1 0 0 1 48.4998 18.9562)" class="st1 st2 st3 st4">Git</text>
<path id="XMLID_7_" class="st1" d="M44.6,14.6l-6.1-6.1c-0.4-0.3-0.9-0.3-1.3,0L36,9.8l1.6,1.6c0.4-0.1,0.8,0,1.1,0.3
	c0.3,0.3,0.4,0.7,0.3,1.1l1.5,1.5c0.4-0.1,0.8,0,1.1,0.3c0.4,0.4,0.4,1.1,0,1.5c-0.4,0.4-1.1,0.4-1.5,0c-0.3-0.3-0.4-0.8-0.2-1.2
	l-1.4-1.4v3.8c0.1,0,0.2,0.1,0.3,0.2c0.4,0.4,0.4,1.1,0,1.5c-0.4,0.4-1.1,0.4-1.5,0c-0.4-0.4-0.4-1.1,0-1.5c0.1-0.1,0.2-0.2,0.4-0.2
	v-3.8c-0.1-0.1-0.2-0.1-0.3-0.2c-0.3-0.3-0.4-0.8-0.2-1.2l-1.6-1.6l-4.2,4.2c-0.3,0.4-0.3,0.9,0,1.3l6.1,6.1c0.4,0.4,0.9,0.4,1.3,0
	l6-6C45,15.5,45,14.9,44.6,14.6"/>
</svg>
