<?xml version="1.0" encoding="utf-8"?>
<!-- Generator: Adobe Illustrator 19.0.0, SVG Export Plug-In . SVG Version: 6.00 Build 0)  -->
<svg version="1.1" id="圖層_1" xmlns="http://www.w3.org/2000/svg" xmlns:xlink="http://www.w3.org/1999/xlink" x="0px" y="0px"
	 viewBox="16 4.8 63.3 20" style="enable-background:new 16 4.8 63.3 20;" xml:space="preserve">
<style type="text/css">
	.st0{fill:#181717;}
	.st1{fill:#FFFFFF;}
	.st2{font-family:'Calibri';}
	.st3{font-size:11.3386px;}
</style>
<rect id="XMLID_13_" x="16" y="4.8" class="st0" width="63.3" height="20"/>
<text id="XMLID_17_" transform="matrix(1 0 0 1 36.4998 18.4562)" class="st1 st2 st3">GitHub</text>
<path id="XMLID_15_" class="st1" d="M25.9,8c-3.8,0-7,3.1-7,7c0,3.1,2,5.7,4.8,6.6c0.3,0.1,0.5-0.1,0.5-0.3c0-0.2,0-0.6,0-1.2
	c-1.9,0.4-2.3-0.9-2.3-0.9c-0.3-0.8-0.8-1-0.8-1c-0.6-0.4,0-0.4,0-0.4c0.7,0,1.1,0.7,1.1,0.7c0.6,1.1,1.6,0.8,2,0.6
	c0.1-0.4,0.2-0.8,0.4-0.9c-1.5-0.2-3.2-0.8-3.2-3.4c0-0.8,0.3-1.4,0.7-1.9c-0.1-0.2-0.3-0.9,0.1-1.8c0,0,0.6-0.2,1.9,0.7
	c0.6-0.2,1.1-0.2,1.7-0.2s1.2,0.1,1.7,0.2c1.3-0.9,1.9-0.7,1.9-0.7c0.4,1,0.1,1.7,0.1,1.8c0.4,0.5,0.7,1.1,0.7,1.9
	c0,2.7-1.6,3.3-3.2,3.4c0.2,0.2,0.5,0.6,0.5,1.3c0,0.9,0,1.7,0,1.9c0,0.2,0.1,0.4,0.5,0.3c2.8-0.9,4.8-3.5,4.8-6.6
	C32.9,11.1,29.8,8,25.9,8"/>
</svg>
