<?xml version="1.0" encoding="utf-8"?>
<!-- Generator: Adobe Illustrator 19.0.0, SVG Export Plug-In . SVG Version: 6.00 Build 0)  -->
<svg version="1.1" id="圖層_1" xmlns="http://www.w3.org/2000/svg" xmlns:xlink="http://www.w3.org/1999/xlink" x="0px" y="0px"
	 viewBox="-9 6 70.7 20" style="enable-background:new -9 6 70.7 20;" xml:space="preserve">
<style type="text/css">
	.st0{fill:#F7DF1E;}
	.st1{fill:#222222;}
	.st2{font-family:'Calibri';}
	.st3{font-size:11.3386px;}
</style>
<rect id="XMLID_18_" x="-9" y="6" class="st0" width="70.7" height="20"/>
<text id="XMLID_23_" transform="matrix(1 0 0 1 11.4998 19.9562)" class="st1 st2 st3">JavaScript</text>
<path id="XMLID_22_" d="M-6.2,8.9H7.9V23H-6.2V8.9z M6.7,19.7C6.6,19,6.2,18.5,5,18c-0.4-0.2-0.9-0.3-1.1-0.7
	c-0.1-0.2-0.1-0.3,0-0.4c0.1-0.4,0.5-0.5,0.9-0.4C5,16.6,5.2,16.7,5.4,17c0.6-0.4,0.6-0.4,1-0.7c-0.2-0.2-0.2-0.4-0.3-0.5
	c-0.4-0.4-0.9-0.6-1.7-0.6L4,15.4c-0.4,0.1-0.8,0.3-1,0.6c-0.7,0.8-0.5,2.1,0.3,2.6c0.8,0.6,2,0.7,2.1,1.3c0.1,0.7-0.5,0.9-1.2,0.8
	c-0.5-0.1-0.7-0.3-1-0.8l-1.1,0.6c0.1,0.3,0.3,0.4,0.5,0.7c1,1,3.6,1,4-0.6C6.7,20.6,6.8,20.2,6.7,19.7L6.7,19.7z M1.5,15.4H0.2
	c0,1.1,0,2.3,0,3.4c0,0.7,0,1.4-0.1,1.6c-0.2,0.4-0.7,0.4-0.9,0.3c-0.2-0.1-0.4-0.3-0.5-0.5c0-0.1-0.1-0.1-0.1-0.1l-1.1,0.7
	c0.2,0.4,0.4,0.7,0.8,0.9c0.5,0.3,1.2,0.4,1.9,0.2c0.5-0.1,0.9-0.4,1.1-0.8c0.3-0.5,0.2-1.2,0.2-2C1.5,17.9,1.5,16.7,1.5,15.4
	C1.5,15.5,1.5,15.4,1.5,15.4z"/>
</svg>
