<?xml version="1.0" encoding="utf-8"?>
<!-- Generator: Adobe Illustrator 19.0.0, SVG Export Plug-In . SVG Version: 6.00 Build 0)  -->
<svg version="1.1" id="圖層_1" xmlns="http://www.w3.org/2000/svg" xmlns:xlink="http://www.w3.org/1999/xlink" x="0px" y="0px"
	 viewBox="0 0 100 30" style="enable-background:new 0 0 100 30;" xml:space="preserve">
<style type="text/css">
	.st0{fill:#F7DF1E;}
	.st1{fill:#222222;}
	.st2{font-family:'Calibri';}
	.st3{font-size:11.3386px;}
	.st4{letter-spacing:1;}
</style>
<rect id="XMLID_18_" x="8" y="5" class="st0" width="80.8" height="20"/>
<text id="XMLID_23_" transform="matrix(1 0 0 1 28.4998 18.9562)" class="st1 st2 st3 st4">JavaScript</text>
<path id="XMLID_22_" d="M10.8,7.9h14.1v14.1H10.8V7.9z M23.7,18.7C23.6,18,23.2,17.5,22,17c-0.4-0.2-0.9-0.3-1.1-0.7
	c-0.1-0.2-0.1-0.3,0-0.4c0.1-0.4,0.5-0.5,0.9-0.4c0.2,0.1,0.4,0.2,0.6,0.5c0.6-0.4,0.6-0.4,1-0.7c-0.2-0.2-0.2-0.4-0.3-0.5
	c-0.4-0.4-0.9-0.6-1.7-0.6L21,14.4c-0.4,0.1-0.8,0.3-1,0.6c-0.7,0.8-0.5,2.1,0.3,2.6c0.8,0.6,2,0.7,2.1,1.3c0.1,0.7-0.5,0.9-1.2,0.8
	c-0.5-0.1-0.7-0.3-1-0.8l-1.1,0.6c0.1,0.3,0.3,0.4,0.5,0.7c1,1,3.6,1,4-0.6C23.7,19.6,23.8,19.2,23.7,18.7
	C23.7,18.7,23.7,18.7,23.7,18.7z M18.5,14.4h-1.3c0,1.1,0,2.3,0,3.4c0,0.7,0,1.4-0.1,1.6c-0.2,0.4-0.7,0.4-0.9,0.3
	c-0.2-0.1-0.4-0.3-0.5-0.5c0-0.1-0.1-0.1-0.1-0.1l-1.1,0.7c0.2,0.4,0.4,0.7,0.8,0.9c0.5,0.3,1.2,0.4,1.9,0.2
	c0.5-0.1,0.9-0.4,1.1-0.8c0.3-0.5,0.2-1.2,0.2-2C18.5,16.9,18.5,15.7,18.5,14.4C18.5,14.5,18.5,14.4,18.5,14.4z"/>
</svg>
