<?xml version="1.0" encoding="utf-8"?>
<!-- Generator: Adobe Illustrator 19.0.0, SVG Export Plug-In . SVG Version: 6.00 Build 0)  -->
<svg version="1.1" id="圖層_1" xmlns="http://www.w3.org/2000/svg" xmlns:xlink="http://www.w3.org/1999/xlink" x="0px" y="0px"
	 viewBox="0 0 100 30" style="enable-background:new 0 0 100 30;" xml:space="preserve">
<style type="text/css">
	.st0{fill:#61DAFB;}
	.st1{fill:#222222;}
	.st2{font-family:'Calibri';}
	.st3{font-size:11.3386px;}
	.st4{letter-spacing:1;}
</style>
<rect id="XMLID_24_" x="20" y="5.5" class="st0" width="55.7" height="20"/>
<text id="XMLID_41_" transform="matrix(1 0 0 1 40.4998 19.1874)" class="st1 st2 st3 st4">React</text>
<path id="XMLID_40_" d="M32,15.5c0,0.8-0.7,1.5-1.5,1.5c-0.8,0-1.5-0.7-1.5-1.5l0,0c0-0.8,0.7-1.5,1.5-1.5C31.3,14,32,14.7,32,15.5
	L32,15.5z M33.7,8.5c-0.9,0-2,0.6-3.2,1.7c-1.2-1.1-2.3-1.7-3.2-1.7c-0.3,0-0.5,0.1-0.7,0.2c-0.9,0.5-1.1,2.1-0.6,4.1
	c-2,0.6-3.3,1.6-3.3,2.6c0,1,1.3,2,3.3,2.6c-0.5,2-0.3,3.6,0.6,4.2c0.2,0.1,0.4,0.2,0.7,0.2c0.9,0,2-0.6,3.2-1.7
	c1.2,1.1,2.3,1.7,3.2,1.7c0.3,0,0.5-0.1,0.7-0.2c0.9-0.5,1.1-2.1,0.6-4.1c2-0.6,3.3-1.6,3.3-2.6c0-1-1.3-2-3.3-2.6
	c0.5-2,0.3-3.6-0.6-4.2C34.2,8.6,34,8.5,33.7,8.5L33.7,8.5z M33.7,9.3L33.7,9.3c0.1,0,0.3,0,0.4,0.1c0.4,0.2,0.6,1.2,0.5,2.4
	c0,0.3-0.1,0.6-0.2,0.9c-0.6-0.2-1.3-0.3-2-0.3c-0.4-0.6-0.9-1.1-1.3-1.6C32.1,9.8,33,9.3,33.7,9.3L33.7,9.3z M27.3,9.3
	c0.7,0,1.6,0.5,2.7,1.5c-0.4,0.5-0.9,1-1.3,1.6c-0.7,0.1-1.4,0.2-2,0.4c-0.1-0.3-0.1-0.6-0.2-0.9c-0.1-1.2,0-2.2,0.5-2.4
	C27.1,9.3,27.2,9.3,27.3,9.3L27.3,9.3z M30.5,11.2c0.3,0.3,0.6,0.6,0.9,1c-0.3,0-0.6,0-0.9,0c-0.3,0-0.6,0-0.9,0
	C29.9,11.9,30.2,11.6,30.5,11.2L30.5,11.2z M30.5,13c0.5,0,1,0,1.4,0.1c0.3,0.4,0.5,0.8,0.8,1.2c0.2,0.4,0.5,0.8,0.7,1.3
	c-0.2,0.4-0.4,0.9-0.7,1.3c-0.2,0.4-0.5,0.8-0.8,1.2c-0.5,0-1,0.1-1.4,0.1c-0.5,0-1,0-1.4-0.1c-0.3-0.4-0.5-0.8-0.8-1.2
	c-0.2-0.4-0.5-0.8-0.7-1.3c0.2-0.4,0.4-0.9,0.7-1.3c0.2-0.4,0.5-0.8,0.8-1.2C29.5,13,30,13,30.5,13L30.5,13z M28.1,13.1
	c-0.2,0.2-0.3,0.5-0.5,0.8c-0.1,0.3-0.3,0.5-0.4,0.8c-0.2-0.4-0.3-0.9-0.4-1.3C27.3,13.3,27.7,13.2,28.1,13.1L28.1,13.1z M32.9,13.1
	c0.5,0.1,0.9,0.1,1.3,0.3c-0.1,0.4-0.3,0.8-0.4,1.3c-0.1-0.3-0.3-0.5-0.4-0.8C33.2,13.6,33,13.4,32.9,13.1L32.9,13.1z M34.9,13.6
	c0.3,0.1,0.6,0.2,0.9,0.3c1.1,0.5,1.9,1.1,1.9,1.6c0,0.5-0.7,1.1-1.9,1.6c-0.3,0.1-0.6,0.2-0.9,0.3c-0.2-0.6-0.4-1.3-0.7-1.9
	C34.5,14.8,34.7,14.2,34.9,13.6L34.9,13.6z M26.1,13.6c0.2,0.6,0.4,1.3,0.7,1.9c-0.3,0.7-0.5,1.3-0.7,1.9c-0.3-0.1-0.6-0.2-0.9-0.3
	c-1.1-0.5-1.9-1.1-1.9-1.6s0.7-1.1,1.9-1.6C25.5,13.8,25.8,13.7,26.1,13.6z M33.8,16.4c0.2,0.4,0.3,0.9,0.4,1.3
	c-0.4,0.1-0.9,0.2-1.3,0.3c0.2-0.2,0.3-0.5,0.5-0.8C33.5,16.9,33.6,16.6,33.8,16.4L33.8,16.4z M27.3,16.4c0.1,0.3,0.3,0.5,0.4,0.8
	c0.1,0.3,0.3,0.5,0.5,0.7c-0.5-0.1-0.9-0.1-1.3-0.3C27,17.2,27.1,16.8,27.3,16.4L27.3,16.4z M34.4,18.3c0.1,0.3,0.1,0.6,0.2,0.9
	c0.1,1.2,0,2.2-0.5,2.4c-0.1,0.1-0.2,0.1-0.4,0.1c-0.7,0-1.6-0.5-2.7-1.5c0.4-0.5,0.9-1,1.3-1.6C33.1,18.6,33.7,18.5,34.4,18.3
	L34.4,18.3z M26.7,18.3c0.6,0.2,1.3,0.3,2,0.3c0.4,0.6,0.9,1.1,1.3,1.6c-1,1-2,1.5-2.7,1.5c-0.1,0-0.3,0-0.4-0.1
	c-0.4-0.2-0.6-1.2-0.5-2.4C26.5,19,26.6,18.6,26.7,18.3L26.7,18.3z M29.6,18.7c0.3,0,0.6,0,0.9,0c0.3,0,0.6,0,0.9,0
	c-0.3,0.4-0.6,0.7-0.9,1C30.2,19.4,29.9,19.1,29.6,18.7z"/>
</svg>
