<?xml version="1.0" encoding="utf-8"?>
<!-- Generator: Adobe Illustrator 19.0.0, SVG Export Plug-In . SVG Version: 6.00 Build 0)  -->
<svg version="1.1" id="圖層_1" xmlns="http://www.w3.org/2000/svg" xmlns:xlink="http://www.w3.org/1999/xlink" x="0px" y="0px"
	 viewBox="23 5 49.7 20" style="enable-background:new 23 5 49.7 20;" xml:space="preserve">
<style type="text/css">
	.st0{fill:#CC6699;}
	.st1{fill:#FFFFFF;}
	.st2{font-family:'Calibri';}
	.st3{font-size:11.3386px;}
</style>
<rect id="XMLID_42_" x="23" y="5" class="st0" width="49.7" height="20"/>
<text id="XMLID_47_" transform="matrix(1 0 0 1 43.4998 18.3754)" class="st1 st2 st3">Sass</text>
<g id="XMLID_39_">
	<circle id="XMLID_45_" class="st1" cx="32.2" cy="15.1" r="6.7"/>
	<path id="XMLID_44_" class="st0" d="M36.4,11.1c-0.3-1.2-2.3-1.6-4.1-0.9c-1.1,0.4-2.3,1-3.2,1.8c-1,1-1.2,1.8-1.1,2.1
		c0.2,1.2,1.9,2,2.6,2.6l0,0c-0.2,0.1-1.7,0.9-2.1,1.6c-0.4,0.8,0.1,1.4,0.3,1.5c0.9,0.2,1.8-0.2,2.3-0.9c0.5-0.7,0.4-1.6,0.2-2
		c0.3-0.1,0.6-0.1,1-0.1c1.2,0.1,1.4,0.9,1.4,1.2c-0.1,0.3-0.3,0.5-0.4,0.5c-0.1,0.1-0.1,0.1-0.1,0.1c0,0.1,0.1,0.1,0.1,0
		c0.1,0,0.6-0.3,0.6-0.8c0-0.7-0.7-1.5-1.9-1.5c-0.5,0-0.8,0.1-1,0.1c0,0,0,0-0.1-0.1c-0.8-0.8-2.1-1.4-2.1-2.5
		c0-0.4,0.2-1.4,2.7-2.7c2.1-1,3.7-0.7,4-0.1c0.4,0.9-0.9,2.6-3,2.8c-0.8,0.1-1.2-0.2-1.4-0.3c-0.1-0.1-0.1-0.1-0.2-0.1s0,0.1,0,0.2
		c0.1,0.2,0.3,0.5,0.8,0.6c0.4,0.1,1.4,0.2,2.5-0.3C35.6,13.6,36.7,12.2,36.4,11.1L36.4,11.1z"/>
	<path id="XMLID_43_" class="st1" d="M30.9,17.3c0.1,0.4,0.1,0.7,0,1v0.1v0.1c-0.1,0.2-0.2,0.3-0.3,0.5c-0.4,0.4-0.9,0.6-1.2,0.4
		c-0.3-0.1-0.1-0.7,0.3-1.2C30.1,17.7,30.8,17.3,30.9,17.3L30.9,17.3L30.9,17.3z"/>
</g>
</svg>
